<?xml version="1.0" standalone="no"?>
<!DOCTYPE svg PUBLIC "-//W3C//DTD SVG 20010904//EN"
 "http://www.w3.org/TR/2001/REC-SVG-20010904/DTD/svg10.dtd">
<svg version="1.0" xmlns="http://www.w3.org/2000/svg"
 width="512.000000pt" height="512.000000pt" viewBox="0 0 512.000000 512.000000"
 preserveAspectRatio="xMidYMid meet">

<g transform="translate(0.000000,512.000000) scale(0.100000,-0.100000)"
fill="#758bff" stroke="none">
<path d="M322 4509 c-154 -30 -279 -157 -312 -314 -7 -34 -9 -578 -8 -1665 l3
-1615 23 -57 c42 -104 126 -188 230 -230 l57 -23 1738 -3 1738 -2 24 24 c32
32 33 75 2 104 l-23 22 -1724 2 -1725 3 -45 21 c-25 11 -62 39 -82 62 -72 80
-68 1 -68 1419 l0 1273 275 0 c223 0 281 3 304 15 47 24 56 78 18 113 -22 21
-32 22 -307 24 l-285 3 -3 224 c-2 181 1 235 13 279 20 68 80 134 143 159 45
17 151 18 2252 18 2101 0 2207 -1 2252 -18 63 -25 123 -91 143 -159 12 -44 15
-98 13 -279 l-3 -224 -2017 -3 -2017 -2 -20 -26 c-12 -15 -21 -33 -21 -40 0
-26 23 -62 47 -73 17 -8 581 -11 2028 -11 l2005 0 0 -1273 c0 -1418 4 -1339
-68 -1419 -74 -82 -75 -82 -522 -88 -217 -3 -400 -8 -407 -12 -18 -12 -31 -61
-22 -85 4 -12 19 -29 33 -38 22 -14 69 -16 423 -13 387 3 400 4 455 26 103 42
188 126 230 230 l23 57 0 1645 0 1645 -23 57 c-42 104 -126 188 -230 230 l-57
23 -2220 1 c-1221 1 -2239 -2 -2263 -7z"/>
<path d="M527 4266 c-171 -47 -231 -267 -108 -399 146 -158 415 -49 414 168 0
159 -152 274 -306 231z m128 -171 c35 -34 34 -93 0 -125 -82 -77 -202 43 -125
125 32 34 91 35 125 0z"/>
<path d="M1105 4271 c-156 -38 -235 -212 -159 -350 101 -186 363 -166 439 33
50 130 -37 285 -176 315 -55 12 -61 12 -104 2z m112 -173 c30 -33 36 -62 19
-101 -37 -90 -166 -58 -166 41 0 72 99 112 147 60z"/>
<path d="M1685 4273 c-92 -20 -146 -62 -181 -138 -56 -120 -9 -255 110 -318
53 -27 155 -29 207 -4 49 24 98 74 120 122 24 53 24 147 0 200 -42 92 -165
159 -256 138z m100 -179 c44 -48 29 -115 -31 -140 -91 -38 -165 78 -92 146 33
30 92 27 123 -6z"/>
<path d="M984 3101 c-49 -12 -101 -48 -124 -87 -12 -19 -75 -230 -141 -477
-155 -572 -179 -668 -179 -713 0 -55 41 -118 93 -143 40 -20 60 -21 295 -21
l252 0 0 -113 c0 -88 4 -119 18 -144 69 -128 317 -136 399 -14 21 31 23 46 23
152 l0 119 25 0 c65 0 141 63 165 135 7 20 10 65 8 99 -7 110 -61 178 -154
192 l-44 6 0 103 c0 89 -3 106 -23 136 -72 110 -313 113 -389 6 -20 -28 -23
-47 -26 -139 l-4 -108 -44 0 c-24 0 -44 2 -44 4 0 3 45 180 100 395 55 215
100 409 100 431 0 74 -45 128 -135 162 -52 20 -131 29 -171 19z m134 -170 c12
-6 22 -14 22 -17 0 -3 -50 -200 -110 -437 -61 -238 -110 -448 -110 -468 0 -24
7 -42 21 -55 19 -17 38 -19 179 -19 153 0 159 1 184 24 25 23 26 29 28 160 l3
136 65 0 65 0 5 -137 c6 -169 11 -177 116 -185 74 -6 84 -13 84 -56 0 -56 -14
-67 -84 -67 -48 0 -70 -5 -87 -19 -23 -18 -24 -26 -29 -172 l-5 -153 -33 -7
c-19 -4 -49 -3 -68 3 l-34 9 0 143 c0 130 -2 146 -21 170 l-20 26 -295 0
c-243 0 -296 2 -300 14 -5 12 278 1085 292 1108 17 27 81 27 132 -1z"/>
<path d="M2389 3095 c-233 -44 -374 -169 -436 -386 -16 -58 -18 -109 -18 -509
0 -392 2 -452 17 -508 53 -189 162 -306 345 -368 105 -36 280 -44 404 -20 222
45 365 179 419 392 18 71 20 111 20 498 0 326 -4 436 -15 488 -43 204 -184
350 -390 403 -88 23 -255 28 -346 10z m296 -157 c157 -33 260 -137 294 -296
18 -85 15 -820 -4 -900 -20 -85 -48 -137 -105 -192 -151 -147 -525 -144 -675
5 -54 55 -92 143 -105 247 -18 134 -8 806 13 876 38 129 118 210 252 254 74
24 233 27 330 6z"/>
<path d="M2447 2840 c-88 -22 -146 -69 -187 -151 -33 -64 -42 -201 -38 -561 5
-381 9 -404 85 -488 105 -117 333 -123 446 -13 92 89 99 134 95 608 -3 351 -5
384 -23 429 -28 69 -85 129 -146 155 -59 26 -173 36 -232 21z m182 -165 c65
-33 66 -37 66 -475 0 -379 -1 -396 -20 -430 -26 -45 -77 -70 -140 -70 -65 0
-115 26 -137 70 -16 32 -18 74 -18 428 0 403 0 404 38 460 27 40 148 50 211
17z"/>
<path d="M3742 3100 c-45 -11 -104 -53 -126 -91 -20 -34 -105 -340 -106 -380
0 -33 38 -69 74 -69 50 0 68 33 115 207 24 90 50 168 58 175 19 15 76 12 113
-7 16 -9 30 -18 30 -22 0 -3 -49 -200 -110 -438 -60 -238 -110 -446 -110 -463
0 -16 8 -40 19 -53 17 -21 28 -23 139 -27 67 -2 142 -1 167 3 73 10 79 24 85
183 l5 137 65 0 65 0 5 -137 c6 -170 10 -177 121 -186 l74 -7 3 -37 c5 -64 -9
-78 -82 -78 -48 0 -70 -5 -87 -19 -23 -18 -24 -26 -29 -172 l-5 -153 -33 -7
c-19 -4 -49 -3 -68 3 l-34 9 0 148 c0 208 30 191 -338 191 -235 0 -294 3 -298
13 -3 8 29 141 70 297 47 173 73 292 70 307 -13 51 -82 70 -122 33 -12 -12
-22 -22 -22 -25 0 -2 -32 -122 -71 -267 -86 -322 -91 -360 -55 -421 17 -31 39
-52 69 -66 40 -20 60 -21 295 -21 l252 0 0 -113 c0 -127 11 -159 69 -201 71
-52 205 -58 285 -13 75 42 95 93 96 240 0 81 1 87 20 87 33 0 85 26 114 56 41
45 59 103 54 176 -7 109 -59 178 -147 193 l-38 6 -5 99 c-5 110 -22 150 -77
187 -77 52 -222 52 -301 -1 -55 -36 -70 -77 -70 -190 l0 -96 -46 0 c-38 0 -45
3 -40 18 44 153 196 781 196 812 0 51 -20 92 -63 124 -61 47 -177 73 -245 56z"/>
</g>
</svg>
